<svg xmlns="http://www.w3.org/2000/svg" xmlns:xlink="http://www.w3.org/1999/xlink" width="78" height="65" viewBox="0 0 78 65"><defs><style>.a{fill:url(#a);}</style><linearGradient id="a" x1="-0.25" y1="1.229" x2="1.25" y2="-0.229" gradientUnits="objectBoundingBox"><stop offset="0" stop-color="#3695ff"/><stop offset="1" stop-color="#3564fc"/></linearGradient></defs><g transform="translate(-1357 -2008)"><g transform="translate(329.381 1593.733)"><path d="M1083.333,465.441a11.917,11.917,0,0,1-11.762,12.065h-32.19a11.916,11.916,0,0,1-11.762-12.065V445.122a11.916,11.916,0,0,1,11.762-12.065h32.19a11.916,11.916,0,0,1,11.762,12.065Zm-3.714-20.319a8.152,8.152,0,0,0-8.048-8.255h-32.19a8.152,8.152,0,0,0-8.048,8.255v20.319a8.153,8.153,0,0,0,8.048,8.255h32.19a8.153,8.153,0,0,0,8.048-8.255Z"/><path d="M1100.824,479.268a4.963,4.963,0,0,1-2.532-.71l-17.624-11.15a1.953,1.953,0,0,1-.912-1.681l.544-17.453a1.9,1.9,0,0,1,.846-1.542l16.964-11.136a5.364,5.364,0,0,1,2.715-.747,4.866,4.866,0,0,1,4.8,4.733v34.953a4.865,4.865,0,0,1-4.8,4.733m-17.354-14.519,16.91,10.567a1.018,1.018,0,0,0,1.525-.781V439.581a1.016,1.016,0,0,0-1.538-.776l-16.273,10.6Z"/><path d="M1064.337,436.519a9.013,9.013,0,1,1,8.786-9.008,8.908,8.908,0,0,1-8.786,9.008m0-14.21a5.2,5.2,0,1,0,5.071,5.2,5.143,5.143,0,0,0-5.071-5.2"/><path d="M1048.518,436.519a11.13,11.13,0,1,1,10.848-11.125,11,11,0,0,1-10.848,11.125m0-18.442a7.319,7.319,0,1,0,7.134,7.318,7.236,7.236,0,0,0-7.134-7.318"/></g><path class="a" d="M1427.673,2072.291l-15.421-9.756a11.813,11.813,0,0,1-11.3,8.7h-32.19A11.916,11.916,0,0,1,1357,2059.174v-20.319a11.916,11.916,0,0,1,11.762-12.064h1.279a11.233,11.233,0,0,1-2.992-7.663A11,11,0,0,1,1377.9,2008a10.859,10.859,0,0,1,9.9,6.588,8.631,8.631,0,0,1,5.915-2.355,8.913,8.913,0,0,1,8.786,9.012,9.106,9.106,0,0,1-1.868,5.546h.316a11.916,11.916,0,0,1,11.762,12.064v.173l14.775-9.7a5.371,5.371,0,0,1,2.715-.747,4.867,4.867,0,0,1,4.8,4.734v34.952a4.865,4.865,0,0,1-4.8,4.733A4.971,4.971,0,0,1,1427.673,2072.291Zm2.075-39.753-16.274,10.6-.624,15.348,16.91,10.567a1.018,1.018,0,0,0,1.526-.781v-34.952a.973.973,0,0,0-1.03-.918A.928.928,0,0,0,1429.748,2032.538Zm-69.034,6.317v20.319a8.153,8.153,0,0,0,8.048,8.255h32.19a8.153,8.153,0,0,0,8.048-8.255v-20.319a8.152,8.152,0,0,0-8.048-8.255h-32.19A8.152,8.152,0,0,0,1360.714,2038.855Zm25.042-12.064h1.045q-.248-.324-.468-.673Q1386.058,2026.465,1385.756,2026.79Zm2.893-5.546a5.072,5.072,0,1,0,5.07-5.2A5.14,5.14,0,0,0,1388.649,2021.244Zm-17.885-2.118a7.137,7.137,0,1,0,7.135-7.317A7.235,7.235,0,0,0,1370.764,2019.127Z"/></g></svg>