<svg xmlns="http://www.w3.org/2000/svg" xmlns:xlink="http://www.w3.org/1999/xlink" width="45" height="66" viewBox="0 0 45 66"><defs><style>.a{fill:url(#a);}</style><linearGradient id="a" x1="-0.25" y1="0.914" x2="1.25" y2="0.086" gradientUnits="objectBoundingBox"><stop offset="0" stop-color="#3695ff"/><stop offset="1" stop-color="#3564fc"/></linearGradient></defs><g transform="translate(-588 -1570)"><g transform="translate(378.698 1370.953)"><path d="M254.3,255.094a9.947,9.947,0,0,1-9.942,9.952H219.244a9.947,9.947,0,0,1-9.942-9.952V209a9.947,9.947,0,0,1,9.942-9.952H244.36A9.947,9.947,0,0,1,254.3,209Zm-3.14-46.1a6.806,6.806,0,0,0-6.8-6.81H219.244a6.806,6.806,0,0,0-6.8,6.81v46.1a6.806,6.806,0,0,0,6.8,6.81H244.36a6.806,6.806,0,0,0,6.8-6.81Z"/><path d="M254.3,254.047a1.571,1.571,0,0,1-1.57,1.571h-41.86a1.57,1.57,0,0,1-1.57-1.571V209a1.571,1.571,0,0,1,1.57-1.571h41.86A1.571,1.571,0,0,1,254.3,209Zm-41.86-1.571h38.721v-41.9H212.442Z"/><path d="M234.358,205.032a2.093,2.093,0,1,1-2.093-2.1,2.094,2.094,0,0,1,2.093,2.1"/><path d="M235.018,259.808h-5.233a1.571,1.571,0,0,1,0-3.143h5.233a1.571,1.571,0,0,1,0,3.143"/><path d="M234.94,239.9h0a1.778,1.778,0,0,1-1.568-1.8c.012-7.888-4.769-8.7-5.313-8.755a1.633,1.633,0,0,1-1.418-1.759,1.58,1.58,0,0,1,1.675-1.457c.082.007,8.211.972,8.2,11.989a1.764,1.764,0,0,1-1.57,1.779"/><path d="M242.121,238.856h0a1.621,1.621,0,0,1-1.568-1.632c.019-13.932-9.287-14.841-9.381-14.849a1.58,1.58,0,0,1-1.443-1.7,1.559,1.559,0,0,1,1.685-1.453c.122.01,12.3,1.2,12.279,18.013a1.618,1.618,0,0,1-1.57,1.623"/></g><path class="a" d="M597.942,1636a9.946,9.946,0,0,1-9.942-9.952v-46.1a9.946,9.946,0,0,1,9.942-9.952h25.116a9.946,9.946,0,0,1,9.941,9.952v46.1a9.946,9.946,0,0,1-9.941,9.952Zm0-3.143h25.116a6.805,6.805,0,0,0,6.782-6.286H591.16A6.805,6.805,0,0,0,597.942,1632.857Zm-6.8-9.428h38.721v-41.9H591.14Zm.182-45.048h38.357a6.806,6.806,0,0,0-6.62-5.238H597.942A6.807,6.807,0,0,0,591.322,1578.38Zm17.161,52.381a1.571,1.571,0,0,1,0-3.143h5.233a1.571,1.571,0,0,1,0,3.143Zm5.153-19.9a1.778,1.778,0,0,1-1.568-1.8c.012-7.888-4.769-8.7-5.313-8.754a1.633,1.633,0,0,1-1.418-1.759,1.581,1.581,0,0,1,1.676-1.457c.081.007,8.211.972,8.195,11.989a1.764,1.764,0,0,1-1.57,1.779Zm7.181-1.048a1.622,1.622,0,0,1-1.568-1.633c.019-13.932-9.287-14.84-9.381-14.849a1.58,1.58,0,0,1-1.444-1.7,1.56,1.56,0,0,1,1.685-1.453c.122.011,12.3,1.2,12.279,18.014a1.618,1.618,0,0,1-1.57,1.623Zm-11.947-33.825a2.093,2.093,0,1,1,2.093,2.1A2.093,2.093,0,0,1,608.87,1575.985Z"/></g></svg>