<svg xmlns="http://www.w3.org/2000/svg" xmlns:xlink="http://www.w3.org/1999/xlink" width="72" height="58.001" viewBox="0 0 72 58.001"><defs><style>.a{fill:url(#a);}</style><linearGradient id="a" x1="-0.246" y1="1.25" x2="1.246" y2="-0.25" gradientUnits="objectBoundingBox"><stop offset="0" stop-color="#3695ff"/><stop offset="1" stop-color="#3564fc"/></linearGradient></defs><g transform="translate(-965 -1576)"><g transform="translate(747.773 1202.98)"><path d="M289.143,413.392a10.831,10.831,0,0,1-10.857,10.8H229.143a10.831,10.831,0,0,1-10.857-10.8V383.824a10.83,10.83,0,0,1,10.857-10.8h49.143a10.83,10.83,0,0,1,10.857,10.8Zm-3.429-29.569a7.409,7.409,0,0,0-7.429-7.392H229.143a7.409,7.409,0,0,0-7.429,7.392v29.569a7.41,7.41,0,0,0,7.429,7.392h49.143a7.41,7.41,0,0,0,7.429-7.392Z"/><path d="M276.875,424.2H231a12.067,12.067,0,0,1-12.162-11.941,1.711,1.711,0,0,1,1.714-1.706h66.775a1.71,1.71,0,0,1,1.714,1.706A12.067,12.067,0,0,1,276.875,424.2m-54.438-10.235A8.7,8.7,0,0,0,231,420.784h45.879a8.7,8.7,0,0,0,8.559-6.824Z"/><path d="M287.512,431.02H218.941a1.706,1.706,0,1,1,0-3.412h68.571a1.706,1.706,0,1,1,0,3.412"/><path d="M257.7,407.469a1.707,1.707,0,0,1-1.213-2.914l9.465-9.416a1.719,1.719,0,0,1,2.424,0,1.7,1.7,0,0,1,0,2.412l-9.464,9.418a1.714,1.714,0,0,1-1.213.5"/><path d="M243.04,409.063a1.7,1.7,0,0,1-1.213-2.911l20.505-20.406a1.719,1.719,0,0,1,2.424,0,1.7,1.7,0,0,1,0,2.412l-20.5,20.407a1.712,1.712,0,0,1-1.213.5"/></g><path class="a" d="M966.713,1634a1.706,1.706,0,1,1,0-3.412h68.572a1.706,1.706,0,1,1,0,3.412Zm57.935-6.824H976.916a10.83,10.83,0,0,1-10.857-10.8V1586.8a10.83,10.83,0,0,1,10.857-10.8h49.143a10.831,10.831,0,0,1,10.858,10.8v29.569a10.831,10.831,0,0,1-10.858,10.8Zm-45.878-3.412h45.878a8.7,8.7,0,0,0,8.559-6.824h-63A8.7,8.7,0,0,0,978.77,1623.765Zm-9.283-36.96v26.725h64V1586.8a7.41,7.41,0,0,0-7.429-7.393H976.916A7.409,7.409,0,0,0,969.487,1586.8Zm20.113,24.741a1.7,1.7,0,0,1,0-2.414l20.506-20.406a1.72,1.72,0,0,1,2.424,0,1.7,1.7,0,0,1,0,2.412l-20.5,20.407a1.727,1.727,0,0,1-2.426,0Zm14.663-1.6a1.7,1.7,0,0,1,0-2.414l9.465-9.416a1.718,1.718,0,0,1,2.424,0,1.7,1.7,0,0,1,0,2.412l-9.464,9.418a1.72,1.72,0,0,1-2.425,0Z"/></g></svg>