<svg xmlns="http://www.w3.org/2000/svg" xmlns:xlink="http://www.w3.org/1999/xlink" width="58" height="66" viewBox="0 0 58 66"><defs><style>.a{fill:url(#a);}</style><linearGradient id="a" x1="-0.25" y1="1.034" x2="1.25" y2="-0.034" gradientUnits="objectBoundingBox"><stop offset="0" stop-color="#3695ff"/><stop offset="1" stop-color="#3564fc"/></linearGradient></defs><g transform="translate(-1362 -1573)"><g transform="translate(1020.781 703.476)"><path d="M399.142,925.571a9.978,9.978,0,0,1-10,9.952H351.224a9.978,9.978,0,0,1-10-9.952v-46.1a9.978,9.978,0,0,1,10-9.952h37.913a9.978,9.978,0,0,1,10,9.952Zm-3.159-46.1a6.827,6.827,0,0,0-6.845-6.81H351.224a6.827,6.827,0,0,0-6.845,6.81v46.1a6.827,6.827,0,0,0,6.845,6.81h37.913a6.827,6.827,0,0,0,6.845-6.81Z"/><path d="M346.035,890.476h-2.106a1.571,1.571,0,1,1,0-3.143h2.106a1.571,1.571,0,1,1,0,3.143"/><path d="M395.532,890.476h-49.5a1.571,1.571,0,1,1,0-3.143h49.5a1.571,1.571,0,1,1,0,3.143"/><path d="M397.639,890.476h-2.106a1.571,1.571,0,1,1,0-3.143h2.106a1.571,1.571,0,1,1,0,3.143"/><path d="M358.916,881.2a2.691,2.691,0,1,1-2.692-2.678,2.684,2.684,0,0,1,2.692,2.678"/><path d="M368.6,881.2a2.691,2.691,0,1,1-2.692-2.678A2.684,2.684,0,0,1,368.6,881.2"/><path d="M377.217,881.2a2.691,2.691,0,1,1-2.693-2.678,2.684,2.684,0,0,1,2.693,2.678"/><path d="M380.682,917.112a1.57,1.57,0,0,1-.89-2.87l8.058-5.452-7.888-4.009a1.568,1.568,0,0,1-.688-2.114,1.585,1.585,0,0,1,2.126-.685l8.151,4.145a2.96,2.96,0,0,1,.406,5.037l-8.389,5.676a1.572,1.572,0,0,1-.887.272"/><path d="M362.575,921.3a1.579,1.579,0,0,1-.888-.272l-8.343-5.645a2.959,2.959,0,0,1,.362-5.068l8.15-4.145a1.586,1.586,0,0,1,2.126.685,1.568,1.568,0,0,1-.688,2.114l-7.889,4.01,8.059,5.451a1.571,1.571,0,0,1-.89,2.87"/><path d="M368.6,924.33a1.528,1.528,0,0,1-.47-.072,1.568,1.568,0,0,1-1.038-1.967l6.928-22.116a1.579,1.579,0,0,1,3.016.934l-6.928,22.117a1.579,1.579,0,0,1-1.508,1.1"/></g><path class="a" d="M1372.005,1639a9.979,9.979,0,0,1-10-9.952v-46.1a9.978,9.978,0,0,1,10-9.952h37.912a9.979,9.979,0,0,1,10.006,9.952v8.944a1.587,1.587,0,0,1,0,.968v36.183a9.98,9.98,0,0,1-10.006,9.952Zm-6.846-9.952a6.827,6.827,0,0,0,6.846,6.809h37.912a6.828,6.828,0,0,0,6.846-6.809v-35.1h-51.605Zm0-46.1v7.857h51.605v-7.857a6.828,6.828,0,0,0-6.846-6.809h-37.912A6.827,6.827,0,0,0,1365.159,1582.952Zm23.758,44.781a1.567,1.567,0,0,1-1.039-1.967l6.926-22.117a1.58,1.58,0,0,1,3.018.935l-6.928,22.117a1.579,1.579,0,0,1-1.508,1.1A1.514,1.514,0,0,1,1388.917,1627.734Zm-6.449-3.227-8.343-5.645a2.959,2.959,0,0,1,.363-5.069l8.149-4.145a1.587,1.587,0,0,1,2.127.686,1.568,1.568,0,0,1-.687,2.114l-7.889,4.01,8.059,5.45a1.574,1.574,0,0,1-1.778,2.6Zm17.687-4.605a1.568,1.568,0,0,1,.418-2.183l8.058-5.452-7.887-4.009a1.566,1.566,0,0,1-.687-2.114,1.585,1.585,0,0,1,2.126-.686l8.151,4.145a2.962,2.962,0,0,1,.407,5.037l-8.391,5.676a1.586,1.586,0,0,1-2.194-.415Zm-7.538-35.222a2.691,2.691,0,1,1,2.688,2.677A2.683,2.683,0,0,1,1392.617,1584.679Zm-8.613,0a2.691,2.691,0,1,1,2.69,2.677A2.684,2.684,0,0,1,1384,1584.679Zm-9.69,0a2.692,2.692,0,1,1,2.692,2.677A2.685,2.685,0,0,1,1374.313,1584.679Z"/></g></svg>