<svg xmlns="http://www.w3.org/2000/svg" xmlns:xlink="http://www.w3.org/1999/xlink" width="361" height="271" viewBox="0 0 361 271"><defs><style>.a{fill:#f4f4f4;stroke:#f4f4f4;stroke-linejoin:round;}.b{clip-path:url(#a);}.c{fill:#469dff;}.d{stroke:none;}.e{fill:none;}</style><clipPath id="a"><rect class="a" width="359" height="269" rx="10" transform="translate(822 2978)"/></clipPath></defs><g transform="translate(-821 -2977)"><g class="a" transform="translate(822 2978)"><rect class="d" width="359" height="269" rx="10"/><rect class="e" x="-0.5" y="-0.5" width="360" height="270" rx="10.5"/></g><g class="b"><g transform="translate(927 3032)"><path class="c" d="M46.7,52.526A30.5,30.5,0,1,1,5.035,63.69,30.5,30.5,0,0,1,46.7,52.526Z"/><path class="c" d="M132.8,103.392a30.5,30.5,0,1,1-41.664,11.164A30.5,30.5,0,0,1,132.8,103.392Z"/><path class="c" d="M132,4.78A30.5,30.5,0,1,1,90.336,15.944,30.5,30.5,0,0,1,132,4.78Z"/><path class="c" d="M96.165,71.848a9,9,0,1,1-12.294,3.294A9,9,0,0,1,96.165,71.848Z"/></g></g></g></svg>