<svg xmlns="http://www.w3.org/2000/svg" xmlns:xlink="http://www.w3.org/1999/xlink" width="361" height="271" viewBox="0 0 361 271"><defs><style>.a{fill:#f4f4f4;stroke:#f4f4f4;stroke-linejoin:round;}.b{clip-path:url(#a);}.c{fill:#fff;}.d{fill:#469dff;}.e{stroke:none;}.f{fill:none;}.g{filter:url(#b);}</style><clipPath id="a"><rect class="a" width="359" height="269" rx="10" transform="translate(1210 2655)"/></clipPath><filter id="b" x="39.5" y="24.5" width="295" height="256" filterUnits="userSpaceOnUse"><feOffset input="SourceAlpha"/><feGaussianBlur stdDeviation="3.5" result="c"/><feFlood flood-color="#303030" flood-opacity="0.039"/><feComposite operator="in" in2="c"/><feComposite in="SourceGraphic"/></filter></defs><g transform="translate(-1209 -2654)"><g class="a" transform="translate(1210 2655)"><rect class="e" width="359" height="269" rx="10"/><rect class="f" x="-0.5" y="-0.5" width="360" height="270" rx="10.5"/></g><g class="b"><g transform="translate(1253 2683)"><g class="g" transform="matrix(1, 0, 0, 1, -44, -29)"><rect class="c" width="274" height="235" transform="translate(50 35)"/></g><rect class="d" width="242" height="21" transform="translate(22 24)"/><rect class="d" width="242" height="39" transform="translate(22 55)"/><rect class="d" width="184" height="6" transform="translate(51 105)"/><rect class="d" width="184" height="6" transform="translate(51 116)"/><rect class="d" width="128" height="6" transform="translate(79 127)"/><rect class="d" width="69.16" height="78" transform="translate(22 145)"/><rect class="d" width="156" height="78" transform="translate(108 145)"/></g></g></g></svg>