<svg xmlns="http://www.w3.org/2000/svg" xmlns:xlink="http://www.w3.org/1999/xlink" width="361" height="271" viewBox="0 0 361 271"><defs><style>.a{fill:#f4f4f4;stroke:#f4f4f4;stroke-linejoin:round;}.b{fill:#fff;}.c{clip-path:url(#c);}.d{clip-path:url(#f);}.e{fill:#469dff;}.f{stroke:none;}.g{fill:none;}.h{filter:url(#d);}.i{filter:url(#a);}</style><filter id="a" x="90.5" y="24.5" width="181" height="256" filterUnits="userSpaceOnUse"><feOffset input="SourceAlpha"/><feGaussianBlur stdDeviation="3.5" result="b"/><feFlood flood-color="#303030" flood-opacity="0.039"/><feComposite operator="in" in2="b"/><feComposite in="SourceGraphic"/></filter><clipPath id="c"><rect class="a" width="359" height="269" rx="10" transform="translate(822 2655)"/></clipPath><filter id="d" x="90.5" y="24.5" width="181" height="256" filterUnits="userSpaceOnUse"><feOffset input="SourceAlpha"/><feGaussianBlur stdDeviation="3.5" result="e"/><feFlood flood-color="#303030" flood-opacity="0.039"/><feComposite operator="in" in2="e"/><feComposite in="SourceGraphic"/></filter><clipPath id="f"><g class="i" transform="matrix(1, 0, 0, 1, 0, 0)"><rect class="b" width="160" height="235" transform="translate(6 6)"/></g></clipPath></defs><g transform="translate(-821 -2654)"><g class="a" transform="translate(822 2655)"><rect class="f" width="359" height="269" rx="10"/><rect class="g" x="-0.5" y="-0.5" width="360" height="270" rx="10.5"/></g><g class="c"><g transform="translate(916 2683)"><g class="h" transform="matrix(1, 0, 0, 1, -95, -29)"><rect class="b" width="160" height="235" transform="translate(101 35)"/></g><g class="d"><rect class="b" width="62" height="6" transform="translate(47 33)"/><rect class="e" width="242" height="50" transform="translate(4 5)"/></g><rect class="e" width="35" height="35" transform="translate(19 76)"/><rect class="e" width="35" height="35" transform="translate(19 127)"/><rect class="e" width="35" height="35" transform="translate(19 178)"/><rect class="e" width="84" height="5" transform="translate(66 80)"/><rect class="e" width="75" height="5" transform="translate(66 91)"/><rect class="e" width="69" height="5" transform="translate(66 102)"/><rect class="b" width="69" height="5" transform="translate(52 36)"/><rect class="b" width="13" height="5" transform="translate(150 9)"/><rect class="b" width="13" height="5" transform="translate(10 9)"/><rect class="b" width="13" height="5" transform="translate(28 9)"/><rect class="e" width="75" height="5" transform="translate(66 130)"/><rect class="e" width="80" height="5" transform="translate(66 141)"/><rect class="e" width="75" height="5" transform="translate(66 152)"/><rect class="e" width="75" height="5" transform="translate(66 183)"/><rect class="e" width="75" height="5" transform="translate(66 194)"/><rect class="e" width="80" height="5" transform="translate(66 205)"/></g></g></g></svg>